<svg version="1.1" id="Layer_1" xmlns="http://www.w3.org/2000/svg" xmlns:xlink="http://www.w3.org/1999/xlink" x="0px" y="0px"
	 width="100%" viewBox="0 0 1080 1080" enable-background="new 0 0 1080 1080" xml:space="preserve">
<path fill="#FFFFFF" opacity="1.000000" stroke="none" 
	d="
M746.000000,1081.000000 
	C497.361969,1081.000000 249.223938,1081.000000 1.042956,1081.000000 
	C1.042956,721.070190 1.042956,361.140350 1.042956,1.105269 
	C360.888245,1.105269 720.776489,1.105269 1080.832397,1.105269 
	C1080.832397,360.999939 1080.832397,720.999939 1080.832397,1081.000000 
	C969.473206,1081.000000 857.986633,1081.000000 746.000000,1081.000000 
M797.969543,459.284424 
	C797.969543,431.384491 797.969543,403.484558 797.969543,375.000000 
	C795.392700,375.000000 793.442322,375.001404 791.491943,374.999786 
	C746.721497,374.962311 701.951111,374.924469 657.104919,373.967133 
	C657.091797,268.986115 657.056946,164.005096 657.143188,59.024166 
	C657.146667,54.748074 656.472107,52.997063 651.525391,53.000950 
	C472.557739,53.141644 293.589874,53.118279 114.622063,53.130009 
	C112.860153,53.130123 111.098251,53.295902 109.363731,53.382961 
	C109.363731,289.168365 109.363731,524.371399 109.363731,760.065491 
	C111.520607,760.065491 113.317459,760.065491 115.114311,760.065491 
	C129.445068,760.065491 143.776138,760.014099 158.106339,760.104248 
	C161.396820,760.125000 164.684265,760.632263 168.472168,761.009460 
	C168.639313,761.035461 168.806458,761.061401 168.977768,762.013672 
	C168.979218,848.668640 168.980499,935.323547 168.982437,1021.978516 
	C168.982590,1028.951050 168.984680,1028.952881 175.962540,1028.952881 
	C380.601837,1028.953247 585.241150,1028.959473 789.880432,1028.932861 
	C799.080200,1028.931641 798.004150,1030.302368 798.007507,1020.630859 
	C798.047852,904.479858 798.053467,788.328918 798.987915,672.059387 
	C855.565186,672.059387 912.142517,672.059387 968.774292,672.059387 
	C968.774292,601.125916 968.774292,530.931824 968.774292,460.485779 
	C966.942871,460.385529 965.476807,460.235474 964.010681,460.235138 
	C910.865906,460.223083 857.721130,460.224548 804.576355,460.226593 
	C802.338074,460.226685 800.099731,460.250305 797.969543,459.284424 
z"/>
<path fill="#F5A9B8" opacity="1.000000" stroke="none" 
	d="
M167.973099,760.915649 
	C164.684265,760.632263 161.396820,760.125000 158.106339,760.104248 
	C143.776138,760.014099 129.445068,760.065491 115.114311,760.065491 
	C113.317459,760.065491 111.520607,760.065491 109.363731,760.065491 
	C109.363731,524.371399 109.363731,289.168365 109.363731,53.382961 
	C111.098251,53.295902 112.860153,53.130123 114.622063,53.130009 
	C293.589874,53.118279 472.557739,53.141644 651.525391,53.000950 
	C656.472107,52.997063 657.146667,54.748074 657.143188,59.024166 
	C657.056946,164.005096 657.091797,268.986115 657.087463,374.904358 
	C657.062195,403.952454 657.054443,432.063385 656.575623,460.199829 
	C502.558655,460.225372 349.012695,460.225372 195.247406,460.225372 
	C195.247406,531.427429 195.247406,601.571655 195.247406,672.023621 
	C197.848465,672.023621 199.998245,672.023560 202.148010,672.023560 
	C351.587219,672.023560 501.026428,672.022949 650.465637,672.030212 
	C652.628662,672.030273 654.791626,672.128174 656.968628,672.637634 
	C656.996826,700.093140 656.887512,727.092590 657.138977,754.088745 
	C657.184448,758.971191 655.748474,760.138489 650.997009,760.128296 
	C580.834839,759.977722 510.672150,760.018555 440.509583,760.025940 
	C350.015045,760.035522 259.520538,760.055847 168.800674,760.140442 
	C168.295609,760.377502 168.094864,760.612915 167.973099,760.915649 
z"/>
<path fill="#D9D9D9" opacity="1.000000" stroke="none" 
	d="
M169.026016,760.071533 
	C259.520538,760.055847 350.015045,760.035522 440.509583,760.025940 
	C510.672150,760.018555 580.834839,759.977722 650.997009,760.128296 
	C655.748474,760.138489 657.184448,758.971191 657.138977,754.088745 
	C656.887512,727.092590 656.996826,700.093140 657.437256,672.576172 
	C677.015381,672.042603 696.138916,671.999573 715.262390,672.019531 
	C742.864319,672.048279 770.466187,672.122864 798.068115,672.177917 
	C798.053467,788.328918 798.047852,904.479858 798.007507,1020.630859 
	C798.004150,1030.302368 799.080200,1028.931641 789.880432,1028.932861 
	C585.241150,1028.959473 380.601837,1028.953247 175.962540,1028.952881 
	C168.984680,1028.952881 168.982590,1028.951050 168.982437,1021.978516 
	C168.980499,935.323547 168.979218,848.668640 168.989655,761.296143 
	C169.009705,760.409607 169.017868,760.240540 169.026016,760.071533 
z"/>
<path fill="#5BCEFA" opacity="1.000000" stroke="none" 
	d="
M798.528015,672.118652 
	C770.466187,672.122864 742.864319,672.048279 715.262390,672.019531 
	C696.138916,671.999573 677.015381,672.042603 657.423279,672.119019 
	C654.791626,672.128174 652.628662,672.030273 650.465637,672.030212 
	C501.026428,672.022949 351.587219,672.023560 202.148010,672.023560 
	C199.998245,672.023560 197.848465,672.023621 195.247406,672.023621 
	C195.247406,601.571655 195.247406,531.427429 195.247406,460.225372 
	C349.012695,460.225372 502.558655,460.225372 656.857544,460.432098 
	C659.557617,460.476593 661.504822,460.172485 663.451904,460.172913 
	C708.255066,460.182892 753.058289,460.226013 797.861450,460.262970 
	C800.099731,460.250305 802.338074,460.226685 804.576355,460.226593 
	C857.721130,460.224548 910.865906,460.223083 964.010681,460.235138 
	C965.476807,460.235474 966.942871,460.385529 968.774292,460.485779 
	C968.774292,530.931824 968.774292,601.125916 968.774292,672.059387 
	C912.142517,672.059387 855.565186,672.059387 798.528015,672.118652 
z"/>
<path fill="#D9D9D9" opacity="1.000000" stroke="none" 
	d="
M797.915527,459.773682 
	C753.058289,460.226013 708.255066,460.182892 663.451904,460.172913 
	C661.504822,460.172485 659.557617,460.476593 657.328552,460.406555 
	C657.054443,432.063385 657.062195,403.952454 657.125366,375.364136 
	C701.951111,374.924469 746.721497,374.962311 791.491943,374.999786 
	C793.442322,375.001404 795.392700,375.000000 797.969543,375.000000 
	C797.969543,403.484558 797.969543,431.384491 797.915527,459.773682 
z"/>
<path fill="#E0CDD1" opacity="1.000000" stroke="none" 
	d="
M168.800674,760.140442 
	C169.017868,760.240540 169.009705,760.409607 168.987549,760.833008 
	C168.806458,761.061401 168.639313,761.035461 168.222626,760.962524 
	C168.094864,760.612915 168.295609,760.377502 168.800674,760.140442 
z"/>
</svg>